# Blender v2.79 (sub 0) OBJ File: 'mole_scaled_googly.blend'
# www.blender.org
mtllib mole_scaled_googly.mtl
o Plane.002_Plane.003
v 35.823696 93.348061 47.163593
v 33.980713 92.163857 3.178968
v 22.632078 118.553871 40.732735
v 22.474344 117.771294 20.718687
v 17.908068 89.218582 57.152832
v 11.312260 115.239548 47.061287
v 29.227888 105.950966 43.948162
v 14.610164 102.229065 52.107059
v 8.950253 87.153839 62.147449
v 16.259115 95.723824 54.629948
v 7.301303 100.368103 56.186504
v 8.125778 93.760971 59.166981
v 9.107327 98.726395 66.898262
v 9.931791 92.169327 69.439743
v 9.107325 99.835663 81.546921
v 9.931789 89.792442 77.545326
v -35.838810 93.348068 47.163586
v -33.995819 92.163864 3.178964
v -0.007559 85.089096 67.142067
v -0.007554 96.402748 -13.655465
v -0.007558 111.925217 53.389843
v -22.647192 118.553879 40.732731
v -22.489454 117.771294 20.718683
v -0.007555 122.964890 14.972978
v -17.923185 89.218582 57.152828
v -11.327375 115.239548 47.061287
v -29.243002 105.950974 43.948158
v -0.007559 98.507156 60.265957
v -14.625281 102.229065 52.107059
v -0.007559 91.798126 63.704014
v -8.965373 87.153839 62.147449
v -16.274233 95.723824 54.629944
v -7.316419 100.368103 56.186504
v -8.140896 93.760971 59.166981
v -9.122446 98.726395 66.898262
v -0.007559 101.195602 67.919006
v -0.007559 89.554634 68.358849
v -9.946911 92.169327 69.439743
v -9.122446 99.835663 81.546921
v -0.007560 103.458420 83.044548
v -0.007560 85.104172 75.607224
v -9.946911 89.792442 77.545326
vn -0.0846 -0.9933 -0.0794
vn -0.1260 0.9534 0.2740
vn 0.4054 0.6335 -0.6590
vn 0.3604 0.4153 0.8352
vn 0.8883 0.4585 -0.0249
vn 0.3487 0.4144 0.8407
vn 0.3625 0.4204 0.8318
vn 0.2734 -0.8665 -0.4176
vn 0.3642 0.4247 0.8288
vn 0.3661 0.4202 0.8303
vn 0.2531 0.9647 -0.0730
vn 0.9847 0.0603 -0.1638
vn -0.1504 0.9731 0.1745
vn 0.4501 -0.7610 -0.4672
vn 0.9971 0.0733 0.0215
vn 0.2333 -0.9723 0.0164
vn 0.1493 -0.9792 -0.1371
vn -0.2988 0.9537 -0.0349
vn 0.1805 0.9688 0.1696
vn 0.3246 0.6934 -0.6433
vn 0.3547 0.4011 0.8446
vn 0.8900 0.4532 -0.0495
vn 0.9004 0.4330 -0.0415
vn 0.3557 0.4262 0.8317
vn 0.3679 0.4158 0.8317
vn 0.3684 0.4062 0.8362
vn 0.1375 -0.9749 -0.1752
vn 0.3645 0.4156 0.8333
vn 0.3460 0.9279 -0.1388
vn 0.9860 0.0516 -0.1583
vn 0.2134 0.9217 -0.3238
vn 0.2723 -0.9233 -0.2708
vn 0.9926 0.1212 -0.0092
vn 0.0846 -0.9933 -0.0794
vn 0.1260 0.9534 0.2740
vn -0.4054 0.6335 -0.6590
vn -0.3604 0.4153 0.8352
vn 1.0000 -0.0000 0.0000
vn -0.8883 0.4585 -0.0249
vn -0.3487 0.4144 0.8407
vn -0.3625 0.4204 0.8318
vn -0.2734 -0.8665 -0.4176
vn -0.3642 0.4247 0.8288
vn -0.3661 0.4202 0.8303
vn -0.2531 0.9647 -0.0730
vn -0.9847 0.0603 -0.1638
vn 0.1504 0.9731 0.1745
vn -0.4501 -0.7610 -0.4673
vn -0.9971 0.0733 0.0215
vn -0.2333 -0.9723 0.0164
vn -0.1493 -0.9792 -0.1371
vn 0.2988 0.9537 -0.0349
vn -0.1805 0.9688 0.1696
vn -0.3246 0.6934 -0.6433
vn -0.3547 0.4011 0.8446
vn -0.8900 0.4532 -0.0495
vn -0.9004 0.4330 -0.0415
vn -0.3557 0.4262 0.8317
vn -0.3679 0.4158 0.8317
vn -0.3684 0.4062 0.8362
vn -0.1375 -0.9749 -0.1752
vn -0.3645 0.4156 0.8333
vn -0.3460 0.9279 -0.1388
vn -0.9860 0.0516 -0.1583
vn -0.2134 0.9217 -0.3238
vn -0.2723 -0.9233 -0.2708
vn -0.9926 0.1212 -0.0092
vn 0.0030 -0.3755 0.9268
vn -0.0063 -0.3706 0.9288
vn -0.0030 -0.3755 0.9268
vn 0.0063 -0.3706 0.9288
usemtl Material.003
s off
f 20//1 2//1 5//1
f 24//2 21//2 6//2
f 20//3 4//3 2//3
f 7//4 6//4 8//4
f 4//5 3//5 7//5
f 8//6 6//6 21//6
f 10//7 11//7 12//7
f 7//4 8//4 10//4
f 30//8 14//8 37//8
f 9//9 30//9 19//9
f 5//10 12//10 9//10
f 36//11 15//11 13//11
f 12//12 13//12 14//12
f 28//13 13//13 11//13
f 37//14 16//14 41//14
f 14//15 15//15 16//15
f 2//16 1//16 5//16
f 5//17 9//17 20//17
f 9//17 19//17 20//17
f 6//18 3//18 4//18
f 4//19 24//19 6//19
f 20//20 24//20 4//20
f 7//21 3//21 6//21
f 7//22 1//22 2//22
f 2//23 4//23 7//23
f 21//24 28//24 11//24
f 11//24 8//24 21//24
f 10//4 8//4 11//4
f 10//25 5//25 1//25
f 1//26 7//26 10//26
f 30//27 12//27 14//27
f 9//7 12//7 30//7
f 5//28 10//28 12//28
f 36//29 40//29 15//29
f 12//30 11//30 13//30
f 28//31 36//31 13//31
f 37//32 14//32 16//32
f 14//33 13//33 15//33
f 20//34 25//34 18//34
f 24//35 26//35 21//35
f 20//36 18//36 23//36
f 27//37 29//37 26//37
f 28//38 24//38 21//38
f 23//39 27//39 22//39
f 29//40 21//40 26//40
f 32//41 34//41 33//41
f 27//37 32//37 29//37
f 30//42 37//42 38//42
f 31//43 19//43 30//43
f 25//44 31//44 34//44
f 36//45 35//45 39//45
f 34//46 38//46 35//46
f 30//38 28//38 36//38
f 28//47 33//47 35//47
f 37//48 41//48 42//48
f 37//38 36//38 40//38
f 38//49 42//49 39//49
f 18//50 25//50 17//50
f 25//51 20//51 31//51
f 31//51 20//51 19//51
f 26//52 23//52 22//52
f 23//53 26//53 24//53
f 20//54 23//54 24//54
f 27//55 26//55 22//55
f 24//38 28//38 20//38
f 20//38 30//38 19//38
f 30//38 20//38 28//38
f 27//56 18//56 17//56
f 18//57 27//57 23//57
f 21//58 33//58 28//58
f 33//58 21//58 29//58
f 32//37 33//37 29//37
f 32//59 17//59 25//59
f 17//60 32//60 27//60
f 30//61 38//61 34//61
f 31//41 30//41 34//41
f 25//62 34//62 32//62
f 36//63 39//63 40//63
f 34//64 35//64 33//64
f 30//38 36//38 37//38
f 28//65 35//65 36//65
f 37//66 42//66 38//66
f 37//38 40//38 41//38
f 38//67 39//67 35//67
usemtl Material.004
f 41//68 15//68 40//68
f 41//69 16//69 15//69
f 41//70 40//70 39//70
f 41//71 39//71 42//71
o Plane.001_Plane.002
v 0.127916 -31.567757 -27.051535
v 0.127924 17.714777 -56.415306
v 0.127916 105.726471 29.004135
v 0.127914 92.720886 -22.604998
v 0.127908 -59.972729 6.058898
v 0.127913 82.915695 67.230476
v 0.127910 -54.899601 56.513088
v 0.127906 54.567387 84.946167
v 0.127910 -56.896568 129.484360
v 0.127902 29.449570 135.534485
v 0.127913 -26.710060 178.196106
v 0.127899 -1.366127 179.562393
v 44.575920 -17.835077 -11.411420
v 36.393242 22.013861 -41.251400
v 37.884327 83.862137 30.110395
v 32.709335 77.572723 -16.207264
v 47.564594 -38.875340 13.114297
v 47.564590 66.965637 58.425594
v 42.737637 -34.030983 65.626091
v 42.737648 45.967346 71.548035
v 30.395536 -36.448322 116.125763
v 31.412201 19.164448 122.016205
v 13.471956 -23.409424 181.569977
v 13.266805 -4.063667 184.232269
v 0.127920 60.253986 -49.300972
v 0.127906 -13.756493 178.894440
v 67.996536 38.604847 1.599147
v 49.940948 52.488571 -33.477657
v 67.996536 13.059137 37.324379
v 67.996521 1.050198 71.045555
v 56.428070 -7.593940 111.905067
v 17.075607 -15.086338 182.111328
v 0.127903 -7.921531 198.718811
v 0.127910 -20.539204 201.731598
v 18.380970 -10.582764 205.156372
v 14.364402 -17.322159 206.279388
v 16.381678 0.106335 197.574203
v 0.127897 4.147549 195.836990
v 7.085402 -3.874172 216.168274
v 7.085404 -8.712864 217.323639
v 7.085401 0.754147 215.063141
v 0.127910 68.741547 76.088318
v 45.151119 56.466488 64.986816
v 21.432775 50.267368 78.247101
v 23.846252 74.940666 62.828030
v 24.346518 61.617649 74.022301
v 40.649506 50.365986 54.082928
v 38.236031 39.866844 60.644154
v 16.931160 44.166866 67.343216
v 18.137901 56.503513 59.633678
v 40.649506 50.365986 54.082928
v 38.236031 39.866844 60.644154
v 16.931160 44.166866 67.343216
v 18.137901 56.503513 59.633678
v 0.127908 61.654469 80.517242
v 43.944382 51.216915 68.267418
v 10.780340 52.417377 81.596634
v 11.987082 78.928177 65.029251
v 0.127911 75.828621 71.659401
v 46.357857 61.716068 61.706207
v 32.085209 48.117359 74.897568
v 35.705421 70.953156 60.626812
v 40.789337 57.617218 65.408890
v 13.093489 65.315659 72.193687
v 27.716257 70.969666 62.925781
v 25.840092 51.789383 74.912102
v 35.383587 50.434032 71.558372
v 16.944910 55.639561 76.516487
v 17.963812 72.469681 65.858536
v 37.728313 66.980499 61.372921
v 18.688814 63.310947 75.345924
v 23.877478 56.822571 77.018875
v 29.844387 60.086201 72.666603
v 24.815561 66.412712 71.025726
v 38.086464 54.025623 68.483635
v 30.611839 51.111706 73.235237
v 21.392504 53.714466 75.714294
v 15.019200 60.477615 74.355087
v 22.840034 71.719673 64.392159
v 15.528651 68.892670 69.026115
v 32.722282 68.975090 62.149353
v 39.258827 62.298859 63.390911
v 29.020666 63.713692 70.939980
v 20.013813 59.240101 77.239578
v 28.551411 57.003712 74.921608
v 20.507027 66.429726 72.752754
v -0.143029 -31.567757 -27.051535
v -0.143031 17.714777 -56.415306
v -0.143029 105.726471 29.004135
v -0.143021 92.720886 -22.604998
v -0.143027 -59.972729 6.058898
v -0.143032 82.915695 67.230476
v -0.143035 -54.899601 56.513088
v -0.143029 54.567387 84.946167
v -0.143045 -56.896568 129.484360
v -0.143033 29.449570 135.534485
v -0.143052 -26.710060 178.196106
v -0.143037 -1.366127 179.562393
v -44.591034 -17.835075 -11.411426
v -36.408348 22.013865 -41.251408
v -37.899441 83.862144 30.110392
v -32.724442 77.572723 -16.207272
v -47.579708 -38.875336 13.114289
v -47.579712 66.965637 58.425587
v -42.752758 -34.030979 65.626091
v -42.752769 45.967350 71.548027
v -30.410666 -36.448322 116.125763
v -31.427330 19.164448 122.016205
v -13.487097 -23.409424 181.569977
v -13.281945 -4.063667 184.232269
v -0.143025 60.253986 -49.300972
v -0.143044 -13.756493 178.894440
v -68.011658 38.604851 1.599138
v -49.956055 52.488575 -33.477665
v -68.011658 13.059141 37.324371
v -68.011658 1.050202 71.045547
v -56.443199 -7.593940 111.905067
v -17.090744 -15.086338 182.111328
v -0.143044 -7.921531 198.718811
v -0.143052 -20.539204 201.731598
v -18.396111 -10.582764 205.156372
v -14.379544 -17.322159 206.279388
v -16.396818 0.106335 197.574203
v -0.143036 4.147549 195.836990
v -0.007571 -3.874179 216.168274
v -0.007572 -8.712872 217.323624
v -7.100544 -3.874172 216.168274
v -7.100547 -8.712864 217.323639
v -7.100543 0.754147 215.063141
v -0.007571 0.754132 215.063141
v -0.143031 68.741547 76.088318
v -45.166241 56.466492 64.986809
v -21.447897 50.267368 78.247101
v -23.861370 74.940666 62.828030
v -24.361639 61.617649 74.022301
v -40.664627 50.365990 54.082920
v -38.251152 39.866848 60.644146
v -16.946281 44.166866 67.343216
v -18.153019 56.503513 59.633678
v -40.664627 50.365990 54.082920
v -38.251152 39.866848 60.644146
v -16.946281 44.166866 67.343216
v -18.153019 56.503513 59.633678
v -0.143030 61.654469 80.517242
v -43.959503 51.216923 68.267418
v -10.795464 52.417377 81.596634
v -12.002202 78.928177 65.029251
v -0.143031 75.828621 71.659401
v -46.372978 61.716068 61.706200
v -32.100330 48.117359 74.897560
v -35.720543 70.953156 60.626808
v -40.804459 57.617222 65.408882
v -13.108610 65.315659 72.193687
v -27.731375 70.969666 62.925777
v -25.855213 51.789383 74.912102
v -35.398708 50.434032 71.558365
v -16.960032 55.639561 76.516487
v -17.978930 72.469681 65.858536
v -37.743435 66.980507 61.372921
v -18.703936 63.310947 75.345924
v -23.892599 56.822571 77.018875
v -29.859509 60.086201 72.666603
v -24.830679 66.412720 71.025726
v -38.101585 54.025631 68.483620
v -30.626961 51.111706 73.235237
v -21.407625 53.714466 75.714294
v -15.034322 60.477615 74.355087
v -22.855152 71.719681 64.392159
v -15.543773 68.892670 69.026115
v -32.737404 68.975090 62.149349
v -39.273949 62.298862 63.390903
v -29.035788 63.713692 70.939980
v -20.028934 59.240101 77.239578
v -28.566532 57.003712 74.921608
v -20.522148 66.429726 72.752754
vn -1.0000 -0.0000 0.0000
vn 0.1725 -0.9528 0.2498
vn -1.0000 -0.0018 -0.0074
vn 0.6782 -0.2918 0.6745
vn 0.2610 0.9024 -0.3430
vn 0.9885 0.1275 -0.0809
vn 0.9141 -0.4001 0.0655
vn -0.0000 0.2322 0.9727
vn -0.0000 -0.7967 0.6043
vn 0.7357 0.1573 0.6588
vn 0.2316 0.9689 0.0872
vn 0.3286 0.4772 0.8150
vn 0.3237 0.4784 0.8163
vn 0.3342 0.4848 0.8083
vn 0.3316 0.4625 0.8223
vn 0.1434 -0.9621 0.2318
vn 0.2948 0.9050 -0.3066
vn 0.8755 0.3637 -0.3181
vn 0.8616 -0.5052 0.0499
vn -0.0151 -0.7934 0.6085
vn 0.7998 0.4396 0.4088
vn -0.0000 0.9848 0.1738
vn 0.3335 0.4801 0.8113
vn 0.3320 0.4658 0.8202
vn 0.3426 0.4735 0.8114
vn 0.3454 0.4728 0.8106
vn 1.0000 -0.0000 0.0000
vn -0.1725 -0.9528 0.2498
vn 1.0000 -0.0018 -0.0074
vn -0.6782 -0.2918 0.6745
vn -0.2610 0.9024 -0.3430
vn -0.9885 0.1275 -0.0809
vn -0.9141 -0.4001 0.0655
vn -0.7357 0.1573 0.6588
vn -0.2316 0.9689 0.0872
vn -0.3286 0.4772 0.8150
vn -0.3237 0.4784 0.8163
vn -0.3342 0.4848 0.8083
vn -0.3316 0.4625 0.8223
vn -0.1434 -0.9621 0.2318
vn -0.2948 0.9050 -0.3066
vn -0.8755 0.3637 -0.3181
vn -0.8616 -0.5052 0.0499
vn 0.0151 -0.7934 0.6085
vn -0.7998 0.4396 0.4088
vn -0.3335 0.4801 0.8113
vn -0.3320 0.4658 0.8202
vn -0.3426 0.4735 0.8114
vn -0.3454 0.4728 0.8106
vn 0.7678 0.6178 -0.1697
vn 0.9397 0.2783 0.1990
vn 0.8513 0.1230 0.5100
vn 0.7483 0.5736 0.3332
vn 0.7282 0.5061 0.4622
vn 0.3196 0.8053 0.4994
vn 0.3168 0.6758 -0.6655
vn 0.3576 0.8507 0.3854
vn 0.4464 0.8677 -0.2187
vn 0.0768 -0.8475 0.5252
vn 0.5527 -0.8330 -0.0228
vn 0.4199 -0.4872 -0.7657
vn 0.4155 -0.9014 0.1214
vn 0.4429 0.7899 0.4241
vn 0.3984 -0.6961 -0.5972
vn 0.3657 0.1535 -0.9180
vn 0.8672 -0.3952 0.3030
vn 0.7449 -0.6499 0.1509
vn 0.9032 -0.4118 0.1210
vn 0.9263 -0.2227 -0.3040
vn 0.8238 -0.2216 -0.5218
vn 0.2097 0.4831 0.8501
vn 0.3734 0.5521 0.7455
vn 0.3482 0.5893 0.7291
vn 0.2813 0.4612 0.8415
vn 0.2704 0.5006 0.8224
vn 0.3650 0.4970 0.7872
vn 0.3684 0.5153 0.7738
vn 0.3181 0.3319 0.8881
vn 0.3182 0.5024 0.8040
vn 0.3518 0.4749 0.8067
vn 0.2733 0.3102 0.9105
vn 0.2638 0.3061 0.9147
vn 0.7656 0.6265 -0.1461
vn 0.8418 0.5388 0.0337
vn 0.8595 0.4814 0.1715
vn 0.7955 0.4427 0.4137
vn 0.9028 0.2438 0.3543
vn 0.3053 0.8529 0.4235
vn 0.4429 0.7900 0.4239
vn 0.4081 0.5798 -0.7052
vn 0.4409 0.7836 0.4377
vn 0.3584 0.8017 0.4784
vn 0.4975 0.8504 -0.1711
vn 0.6218 -0.7215 0.3046
vn 0.4284 -0.9015 0.0615
vn 0.3871 -0.4719 -0.7921
vn 0.3932 -0.9148 0.0920
vn -0.0356 0.8187 0.5731
vn 0.4224 -0.6619 -0.6193
vn 0.3154 0.1005 -0.9436
vn 0.7223 -0.6018 0.3406
vn 0.7999 -0.5916 0.1013
vn 0.8098 -0.5527 -0.1968
vn 0.9160 -0.3263 -0.2333
vn 0.8235 -0.2343 -0.5166
vn 0.2410 0.4495 0.8601
vn 0.3497 0.5390 0.7663
vn 0.3423 0.5792 0.7399
vn 0.3489 0.5726 0.7419
vn 0.3672 0.4929 0.7888
vn 0.3500 0.4964 0.7944
vn 0.2913 0.3822 0.8770
vn 0.3515 0.4319 0.8306
vn 0.2540 0.4699 0.8454
vn 0.2659 0.2818 0.9219
vn -0.7678 0.6178 -0.1697
vn -0.9397 0.2783 0.1990
vn -0.8513 0.1230 0.5100
vn -0.7483 0.5736 0.3332
vn -0.7282 0.5061 0.4622
vn -0.3196 0.8053 0.4994
vn -0.3168 0.6758 -0.6655
vn -0.3576 0.8507 0.3854
vn -0.4464 0.8677 -0.2187
vn -0.0768 -0.8475 0.5252
vn -0.5527 -0.8330 -0.0228
vn -0.4199 -0.4872 -0.7657
vn -0.4155 -0.9014 0.1214
vn -0.4429 0.7899 0.4241
vn -0.3984 -0.6961 -0.5972
vn -0.3657 0.1535 -0.9180
vn -0.8672 -0.3952 0.3030
vn -0.7449 -0.6499 0.1509
vn -0.9032 -0.4118 0.1210
vn -0.9263 -0.2227 -0.3040
vn -0.8238 -0.2216 -0.5218
vn -0.2097 0.4831 0.8501
vn -0.3734 0.5521 0.7455
vn -0.3482 0.5893 0.7291
vn -0.2813 0.4612 0.8415
vn -0.2704 0.5006 0.8224
vn -0.3650 0.4970 0.7872
vn -0.3684 0.5153 0.7738
vn -0.3181 0.3319 0.8881
vn -0.3182 0.5024 0.8040
vn -0.3518 0.4749 0.8067
vn -0.2733 0.3102 0.9105
vn -0.2638 0.3061 0.9147
vn -0.7656 0.6265 -0.1461
vn -0.8418 0.5388 0.0337
vn -0.8595 0.4814 0.1715
vn -0.7955 0.4427 0.4137
vn -0.9028 0.2438 0.3543
vn -0.3053 0.8529 0.4235
vn -0.4429 0.7900 0.4239
vn -0.4081 0.5798 -0.7052
vn -0.4409 0.7836 0.4377
vn -0.3584 0.8017 0.4784
vn -0.4975 0.8504 -0.1711
vn -0.6218 -0.7215 0.3046
vn -0.4284 -0.9015 0.0615
vn -0.3871 -0.4719 -0.7921
vn -0.3932 -0.9148 0.0920
vn 0.0356 0.8187 0.5731
vn -0.4224 -0.6619 -0.6193
vn -0.3154 0.1005 -0.9436
vn -0.7223 -0.6018 0.3406
vn -0.7999 -0.5916 0.1013
vn -0.8098 -0.5527 -0.1968
vn -0.9160 -0.3263 -0.2333
vn -0.8235 -0.2343 -0.5166
vn -0.2410 0.4495 0.8601
vn -0.3497 0.5390 0.7663
vn -0.3423 0.5792 0.7399
vn -0.3489 0.5726 0.7419
vn -0.3672 0.4929 0.7888
vn -0.3500 0.4964 0.7944
vn -0.2913 0.3822 0.8770
vn -0.3515 0.4319 0.8306
vn -0.2540 0.4699 0.8454
vn -0.2659 0.2818 0.9219
vn 0.3067 -0.1612 0.9380
vn -0.1297 -0.2938 0.9470
vn 0.5683 0.4553 0.6854
vn 0.3123 0.4603 0.8310
vn 0.3765 0.7164 0.5873
vn -0.4144 0.2286 0.8809
vn -0.4497 0.2089 0.8684
vn 0.3527 0.4411 0.8253
vn 0.5735 0.2392 0.7835
vn 0.2853 0.7881 0.5455
vn 0.2893 0.7704 0.5682
vn -0.1586 0.7129 0.6831
vn 0.4068 -0.2132 0.8883
vn -0.0009 -0.3864 0.9223
vn 0.5582 0.4756 0.6799
vn 0.5199 0.6186 0.5891
vn 0.4574 0.6950 0.5548
vn -0.4338 0.2601 0.8627
vn 0.0659 -0.2502 0.9659
vn 0.5489 -0.0469 0.8346
vn 0.5963 0.2958 0.7463
vn 0.2297 0.7922 0.5654
vn -0.1565 0.6838 0.7127
vn -0.3067 -0.1612 0.9380
vn 0.1297 -0.2938 0.9470
vn -0.5683 0.4553 0.6854
vn -0.3123 0.4603 0.8310
vn -0.3765 0.7164 0.5873
vn 0.4144 0.2286 0.8809
vn 0.4497 0.2089 0.8684
vn -0.3527 0.4411 0.8253
vn -0.5735 0.2392 0.7835
vn -0.2853 0.7881 0.5455
vn -0.2893 0.7704 0.5682
vn 0.1586 0.7129 0.6831
vn -0.4068 -0.2132 0.8883
vn 0.0009 -0.3864 0.9223
vn -0.5582 0.4756 0.6799
vn -0.5199 0.6186 0.5891
vn -0.4574 0.6950 0.5548
vn 0.4338 0.2601 0.8627
vn -0.0659 -0.2502 0.9659
vn -0.5489 -0.0469 0.8346
vn -0.5963 0.2958 0.7463
vn -0.2297 0.7922 0.5654
vn 0.1565 0.6838 0.7127
usemtl Material.001
s off
f 54//72 75//72 80//72
f 65//73 76//73 53//73
f 75//74 172//74 80//74
f 77//75 82//75 78//75
f 66//76 80//76 79//76
f 68//72 76//72 75//72
f 74//77 79//77 77//77
f 74//78 78//78 65//78
f 168//79 81//79 167//79
f 172//79 81//79 83//79
f 76//80 82//80 168//80
f 75//74 168//74 167//74
f 77//81 83//81 81//81
f 80//82 83//82 79//82
f 128//83 88//83 116//83
f 88//84 125//84 116//84
f 126//85 88//85 113//85
f 88//86 127//86 115//86
f 54//72 68//72 75//72
f 65//87 78//87 76//87
f 75//74 167//74 172//74
f 77//81 81//81 82//81
f 66//88 54//88 80//88
f 68//72 53//72 76//72
f 74//89 66//89 79//89
f 74//90 77//90 78//90
f 168//79 82//79 81//79
f 172//79 167//79 81//79
f 76//91 78//91 82//91
f 75//74 76//74 168//74
f 77//92 79//92 83//92
f 80//93 172//93 83//93
f 128//94 113//94 88//94
f 88//95 115//95 125//95
f 126//96 114//96 88//96
f 88//97 114//97 127//97
f 140//98 166//98 161//98
f 151//99 139//99 162//99
f 161//100 166//100 172//100
f 163//101 164//101 170//101
f 152//102 165//102 166//102
f 154//98 161//98 162//98
f 160//103 163//103 165//103
f 160//104 151//104 164//104
f 168//79 167//79 169//79
f 172//79 171//79 169//79
f 162//80 168//80 170//80
f 161//100 167//100 168//100
f 163//105 169//105 171//105
f 166//106 165//106 171//106
f 217//107 205//107 177//107
f 177//108 205//108 214//108
f 215//109 202//109 177//109
f 177//110 204//110 216//110
f 140//98 161//98 154//98
f 151//111 162//111 164//111
f 161//100 172//100 167//100
f 163//105 170//105 169//105
f 152//112 166//112 140//112
f 154//98 162//98 139//98
f 160//113 165//113 152//113
f 160//114 164//114 163//114
f 168//79 169//79 170//79
f 172//79 169//79 167//79
f 162//115 170//115 164//115
f 161//100 168//100 162//100
f 163//116 171//116 165//116
f 166//93 171//93 172//93
f 217//117 177//117 202//117
f 177//118 214//118 204//118
f 215//119 177//119 203//119
f 177//120 216//120 203//120
usemtl Material.002
f 69//121 58//121 57//121
f 69//122 60//122 71//122
f 98//123 62//123 71//123
f 72//124 64//124 73//124
f 64//125 74//125 73//125
f 86//126 99//126 64//126
f 67//127 58//127 70//127
f 104//128 60//128 57//128
f 45//129 58//129 46//129
f 51//130 65//130 53//130
f 49//131 63//131 51//131
f 43//132 56//132 55//132
f 49//133 59//133 61//133
f 52//134 66//134 64//134
f 43//135 59//135 47//135
f 67//136 56//136 44//136
f 63//137 74//137 65//137
f 61//138 73//138 63//138
f 71//139 61//139 59//139
f 55//140 71//140 59//140
f 56//141 69//141 55//141
f 105//142 85//142 102//142
f 86//143 108//143 119//143
f 108//144 86//144 103//144
f 109//145 62//145 98//145
f 105//146 117//146 98//146
f 97//147 120//147 106//147
f 97//148 99//148 110//148
f 111//149 121//149 87//149
f 101//150 100//150 48//150
f 122//151 101//151 106//151
f 112//152 60//152 104//152
f 107//153 123//153 104//153
f 69//154 70//154 58//154
f 69//155 57//155 60//155
f 72//156 71//156 62//156
f 71//123 60//123 102//123
f 98//123 71//123 85//123
f 102//123 85//123 71//123
f 72//157 62//157 64//157
f 64//158 66//158 74//158
f 99//159 50//159 52//159
f 52//160 64//160 99//160
f 64//126 62//126 103//126
f 86//126 64//126 103//126
f 67//161 46//161 58//161
f 57//162 45//162 100//162
f 45//163 48//163 100//163
f 100//128 87//128 57//128
f 87//128 104//128 57//128
f 45//164 57//164 58//164
f 51//165 63//165 65//165
f 49//166 61//166 63//166
f 43//167 44//167 56//167
f 49//168 47//168 59//168
f 52//169 54//169 66//169
f 43//170 55//170 59//170
f 67//171 70//171 56//171
f 63//172 73//172 74//172
f 61//173 72//173 73//173
f 71//174 72//174 61//174
f 55//175 69//175 71//175
f 56//176 70//176 69//176
f 102//177 112//177 124//177
f 124//177 105//177 102//177
f 119//143 110//143 86//143
f 110//178 99//178 86//178
f 103//179 109//179 118//179
f 118//179 108//179 103//179
f 109//180 103//180 62//180
f 98//142 85//142 105//142
f 117//146 109//146 98//146
f 106//181 84//181 97//181
f 97//147 110//147 120//147
f 97//182 50//182 99//182
f 87//183 100//183 111//183
f 121//149 107//149 87//149
f 101//184 111//184 100//184
f 111//151 101//151 122//151
f 101//181 84//181 106//181
f 112//185 102//185 60//185
f 104//186 87//186 107//186
f 123//153 112//153 104//153
f 155//187 143//187 144//187
f 155//188 157//188 146//188
f 187//189 157//189 148//189
f 158//190 159//190 150//190
f 150//191 159//191 160//191
f 175//192 150//192 188//192
f 153//193 156//193 144//193
f 193//194 143//194 146//194
f 131//195 132//195 144//195
f 137//196 139//196 151//196
f 135//197 137//197 149//197
f 129//198 141//198 142//198
f 135//199 147//199 145//199
f 138//200 150//200 152//200
f 129//201 133//201 145//201
f 153//202 130//202 142//202
f 149//203 151//203 160//203
f 147//204 149//204 159//204
f 157//205 145//205 147//205
f 141//206 145//206 157//206
f 142//207 141//207 155//207
f 194//208 191//208 174//208
f 175//209 208//209 197//209
f 197//210 192//210 175//210
f 198//211 187//211 148//211
f 194//212 187//212 206//212
f 186//213 195//213 209//213
f 186//214 199//214 188//214
f 200//215 176//215 210//215
f 190//216 134//216 189//216
f 211//217 195//217 190//217
f 201//218 193//218 146//218
f 196//219 193//219 212//219
f 155//220 144//220 156//220
f 155//221 146//221 143//221
f 158//222 148//222 157//222
f 157//189 191//189 146//189
f 187//189 174//189 157//189
f 191//189 157//189 174//189
f 158//223 150//223 148//223
f 150//224 160//224 152//224
f 188//225 138//225 136//225
f 138//226 188//226 150//226
f 150//192 192//192 148//192
f 175//192 192//192 150//192
f 153//227 144//227 132//227
f 143//228 189//228 131//228
f 131//229 189//229 134//229
f 189//194 143//194 176//194
f 176//194 143//194 193//194
f 131//230 144//230 143//230
f 137//231 151//231 149//231
f 135//232 149//232 147//232
f 129//233 142//233 130//233
f 135//234 145//234 133//234
f 138//235 152//235 140//235
f 129//236 145//236 141//236
f 153//237 142//237 156//237
f 149//238 160//238 159//238
f 147//239 159//239 158//239
f 157//240 147//240 158//240
f 141//241 157//241 155//241
f 142//242 155//242 156//242
f 191//243 213//243 201//243
f 213//243 191//243 194//243
f 208//209 175//209 199//209
f 199//244 175//244 188//244
f 192//245 207//245 198//245
f 207//245 192//245 197//245
f 198//246 148//246 192//246
f 187//208 194//208 174//208
f 206//212 187//212 198//212
f 195//247 186//247 173//247
f 186//213 209//213 199//213
f 186//248 188//248 136//248
f 176//249 200//249 189//249
f 210//215 176//215 196//215
f 190//250 189//250 200//250
f 200//217 211//217 190//217
f 190//247 195//247 173//247
f 201//251 146//251 191//251
f 193//252 196//252 176//252
f 212//219 193//219 201//219
usemtl Material.004
f 127//253 108//253 118//253
f 119//254 114//254 126//254
f 115//255 124//255 125//255
f 123//256 124//256 112//256
f 107//257 125//257 123//257
f 120//258 113//258 106//258
f 110//259 126//259 120//259
f 117//260 118//260 109//260
f 115//261 117//261 105//261
f 121//262 116//262 107//262
f 111//263 128//263 121//263
f 106//264 128//264 122//264
f 127//265 114//265 108//265
f 119//266 108//266 114//266
f 115//267 105//267 124//267
f 123//268 125//268 124//268
f 107//269 116//269 125//269
f 120//270 126//270 113//270
f 110//271 119//271 126//271
f 117//272 127//272 118//272
f 115//273 127//273 117//273
f 121//274 128//274 116//274
f 111//264 122//264 128//264
f 106//275 113//275 128//275
f 216//276 207//276 197//276
f 208//277 215//277 203//277
f 204//278 214//278 213//278
f 212//279 201//279 213//279
f 196//280 212//280 214//280
f 209//281 195//281 202//281
f 199//282 209//282 215//282
f 206//283 198//283 207//283
f 204//284 194//284 206//284
f 210//285 196//285 205//285
f 200//286 210//286 217//286
f 195//287 211//287 217//287
f 216//288 197//288 203//288
f 208//289 203//289 197//289
f 204//290 213//290 194//290
f 212//291 213//291 214//291
f 196//292 214//292 205//292
f 209//293 202//293 215//293
f 199//294 215//294 208//294
f 206//295 207//295 216//295
f 204//296 206//296 216//296
f 210//297 205//297 217//297
f 200//287 217//287 211//287
f 195//298 217//298 202//298
l 90 94
l 95 91
l 92 96
l 93 89
l 179 183
l 184 180
l 181 185
l 182 178
